<svg width="24" height="25" viewBox="0 0 24 25" fill="none" xmlns="http://www.w3.org/2000/svg">
<path d="M6.59634 16.7H7.09634V16.2H6.59634V16.7ZM8.64834 21.152L9.00189 21.5056L9.00237 21.5051L8.64834 21.152ZM13.0883 16.7V16.2H12.8808L12.7343 16.3469L13.0883 16.7ZM19.7963 3H4.19634V4H19.7963V3ZM4.19634 3C3.2602 3 2.49634 3.76386 2.49634 4.7H3.49634C3.49634 4.31614 3.81248 4 4.19634 4V3ZM2.49634 4.7V15.5H3.49634V4.7H2.49634ZM2.49634 15.5C2.49634 16.4361 3.2602 17.2 4.19634 17.2V16.2C3.81248 16.2 3.49634 15.8839 3.49634 15.5H2.49634ZM4.19634 17.2H6.59634V16.2H4.19634V17.2ZM6.09634 16.7V20.3H7.09634V16.7H6.09634ZM6.09634 20.3C6.09634 21.2361 6.8602 22 7.79634 22V21C7.41248 21 7.09634 20.6839 7.09634 20.3H6.09634ZM7.79634 22C8.26645 22 8.69319 21.8143 9.00189 21.5056L8.29478 20.7984C8.17148 20.9217 7.99822 21 7.79634 21V22ZM9.00237 21.5051L13.4424 17.0531L12.7343 16.3469L8.29431 20.7989L9.00237 21.5051ZM13.0883 17.2H19.7963V16.2H13.0883V17.2ZM19.7963 17.2C20.7325 17.2 21.4963 16.4361 21.4963 15.5H20.4963C20.4963 15.8839 20.1802 16.2 19.7963 16.2V17.2ZM21.4963 15.5V4.7H20.4963V15.5H21.4963ZM21.4963 4.7C21.4963 3.76386 20.7325 3 19.7963 3V4C20.1802 4 20.4963 4.31614 20.4963 4.7H21.4963Z" fill="#0D2159"/>
</svg>
