<svg width="201" height="158" viewBox="0 0 201 158" fill="none" xmlns="http://www.w3.org/2000/svg">
<path d="M70.2219 34.6633H121.872C121.872 34.6633 117.104 15.6936 95.6567 15.6936C76.5806 15.6936 70.2219 34.6633 70.2219 34.6633Z" fill="#3366FF"/>
<path d="M96.5998 0H95.4935V15.6851H96.5998V0Z" fill="#3366FF"/>
<path d="M171.039 37.6175C169.779 37.8565 169.166 39.0655 169.046 40.1354C168.926 41.2054 169.089 42.3395 168.548 43.3167C167.939 44.4151 166.486 45.2283 166.439 46.4373C166.409 47.1755 166.936 47.8638 166.91 48.6092C166.868 49.8218 165.384 50.7491 165.303 51.9474C165.247 52.8211 165.946 53.6557 165.778 54.5188C165.65 55.1892 165.02 55.7171 164.754 56.359C164.226 57.6429 165.285 59.0517 166.662 59.7721C167.433 60.1753 168.3 60.4336 169.204 60.529C170.108 60.6244 171.025 60.5545 171.893 60.3242C172.761 60.0939 173.558 59.7088 174.228 59.1958C174.898 58.6828 175.425 58.0542 175.773 57.3541C176.536 55.8134 176.369 54.0765 176.202 52.4181C175.687 47.2445 175.304 42.0637 175.053 36.8757" fill="#263238"/>
<path d="M167.378 55.8711C167.637 55.737 167.84 55.5387 167.957 55.304C168.08 55.0249 168.13 54.7268 168.102 54.4302C168.055 54.037 167.95 53.6501 167.789 53.2783C167.584 52.8109 167.508 52.3112 167.566 51.8161C167.674 51.2597 168.154 50.8032 168.587 50.3538C168.82 50.1339 169.015 49.8878 169.166 49.6227C169.317 49.3547 169.341 49.0492 169.234 48.7668C169.011 48.1855 168.325 47.7575 168.012 47.0834C167.865 46.7498 167.841 46.3871 167.944 46.0421C168.041 45.7185 168.185 45.406 168.372 45.1112C168.734 44.5804 169.022 44.0168 169.23 43.4314C169.53 42.3009 169.389 41.2203 169.594 40.3322C169.709 39.621 170.088 38.9574 170.679 38.4349C170.846 38.2942 171.037 38.1741 171.245 38.0783C171.317 38.0472 171.393 38.0244 171.472 38.0105C171.204 38.1336 170.957 38.2872 170.739 38.467C170.192 38.9948 169.847 39.6469 169.749 40.3394C169.674 40.8124 169.634 41.2888 169.629 41.7659C169.627 42.3274 169.561 42.8876 169.431 43.4386C169.227 44.0373 168.939 44.6142 168.574 45.1576C168.252 45.7175 167.957 46.3737 168.24 46.9872C168.523 47.6006 169.204 48.025 169.466 48.6812C169.584 49.0054 169.555 49.3544 169.384 49.662C169.217 49.9537 169.001 50.2239 168.741 50.4644C168.312 50.9138 167.845 51.3417 167.742 51.841C167.682 52.3146 167.749 52.7934 167.939 53.2426C168.093 53.626 168.188 54.0237 168.222 54.4267C168.244 54.737 168.177 55.0472 168.029 55.3325C167.937 55.5115 167.789 55.6666 167.601 55.7819C167.534 55.8228 167.458 55.853 167.378 55.8711Z" fill="#455A64"/>
<path d="M164.024 64.3279L160.165 73.6005L144.026 74.3138L141.334 79.3068L158.184 80.7334C158.981 81.0052 159.835 81.14 160.695 81.1296C161.556 81.1192 162.405 80.9638 163.191 80.6728C163.977 80.3818 164.685 79.9612 165.27 79.4365C165.855 78.9118 166.307 78.2938 166.597 77.6199L171.095 67.1774L164.024 64.3279Z" fill="#B78876"/>
<path d="M197.387 151.822C197.387 151.822 185.562 120.574 185.309 119.561C185.081 118.641 189.596 96.1544 190.171 90.3162L174.191 90.8119V90.9438L167.399 91.2577L173.479 155.139H180.832L180.103 133.937C184.64 144.062 191.14 154.383 191.14 154.383L197.387 151.822Z" fill="#B78876"/>
<path d="M180.403 141.543C180.403 141.35 180.313 134.438 180.313 134.438C180.223 134.852 177.496 128.44 177.561 128.051C177.595 127.848 180.403 141.543 180.403 141.543Z" fill="#A36957"/>
<path d="M177.251 125.013C177.214 125.14 177.198 125.271 177.204 125.402C177.181 125.758 177.181 126.115 177.204 126.472C177.204 126.696 177.243 126.939 177.277 127.203C177.311 127.467 177.359 127.745 177.432 128.034C177.584 128.665 177.786 129.286 178.036 129.895C178.568 131.19 179.16 132.321 179.575 133.141C179.773 133.497 179.944 133.836 180.09 134.107C180.143 134.233 180.215 134.353 180.304 134.464C180.281 134.341 180.238 134.221 180.176 134.107C180.077 133.872 179.927 133.533 179.747 133.116C179.37 132.281 178.804 131.14 178.276 129.86C178.027 129.26 177.822 128.647 177.663 128.027C177.586 127.741 177.534 127.467 177.487 127.21C177.44 126.953 177.406 126.711 177.384 126.497C177.333 126.054 177.312 125.698 177.299 125.448C177.307 125.302 177.291 125.156 177.251 125.013Z" fill="#A36957"/>
<path d="M173.342 155.464V154.89L180.875 154.615L180.897 156.987L180.434 157.012C178.363 157.112 169.907 157.404 168.527 157.058C166.979 156.673 173.342 155.464 173.342 155.464Z" fill="#455A64"/>
<path d="M180.995 156.844C180.952 156.846 180.909 156.846 180.867 156.844L180.498 156.865L179.134 156.915C177.985 156.954 176.394 156.99 174.641 156.997C172.887 157.004 171.292 156.979 170.139 156.951L168.78 156.904H168.406H168.278C168.321 156.901 168.364 156.901 168.406 156.904H168.78L170.143 156.926C171.292 156.926 172.883 156.954 174.637 156.947C176.39 156.94 177.985 156.915 179.134 156.89L180.498 156.862H180.995V156.844Z" fill="#263238"/>
<path d="M170.885 157.043C170.823 156.856 170.736 156.676 170.628 156.505C170.492 156.347 170.336 156.202 170.161 156.073C170.395 156.143 170.589 156.283 170.705 156.465C170.847 156.633 170.911 156.838 170.885 157.043Z" fill="#263238"/>
<path d="M173.106 156.105C173.106 156.105 172.982 156.009 172.87 155.867C172.758 155.724 172.689 155.599 172.711 155.589C172.732 155.578 172.835 155.681 172.947 155.824C173.059 155.966 173.128 156.095 173.106 156.105Z" fill="#263238"/>
<path d="M173.715 155.851C173.715 155.869 173.577 155.801 173.448 155.705C173.32 155.609 173.225 155.519 173.242 155.505C173.26 155.491 173.38 155.555 173.509 155.651C173.637 155.748 173.732 155.819 173.715 155.851Z" fill="#263238"/>
<path d="M174.096 155.246C173.97 155.285 173.835 155.299 173.701 155.289C173.57 155.304 173.437 155.293 173.311 155.257C173.436 155.219 173.569 155.204 173.701 155.214C173.834 155.199 173.969 155.21 174.096 155.246Z" fill="#263238"/>
<path d="M174.225 154.831C174.097 154.9 173.948 154.937 173.796 154.938C173.65 154.954 173.502 154.937 173.367 154.888C173.509 154.868 173.653 154.859 173.796 154.86C173.938 154.839 174.081 154.829 174.225 154.831Z" fill="#263238"/>
<path d="M172.852 155.56C172.692 155.584 172.528 155.584 172.368 155.56C172.194 155.542 172.024 155.511 171.857 155.467C171.754 155.443 171.655 155.41 171.562 155.367C171.504 155.339 171.462 155.295 171.441 155.242C171.434 155.213 171.436 155.182 171.449 155.153C171.462 155.125 171.485 155.1 171.514 155.082C171.633 155.034 171.763 155.009 171.895 155.008C172.027 155.007 172.158 155.03 172.277 155.076C172.397 155.122 172.503 155.19 172.588 155.274C172.672 155.358 172.733 155.457 172.766 155.563C172.775 155.598 172.775 155.635 172.766 155.67C172.718 155.541 172.642 155.421 172.543 155.314C172.429 155.207 172.28 155.13 172.115 155.093C171.925 155.042 171.719 155.054 171.54 155.128C171.467 155.175 171.497 155.249 171.579 155.292C171.666 155.332 171.758 155.364 171.853 155.388C172.014 155.433 172.179 155.467 172.346 155.492C172.668 155.549 172.852 155.549 172.852 155.56Z" fill="#263238"/>
<path d="M172.728 155.581C172.666 155.498 172.644 155.399 172.668 155.303C172.684 155.198 172.729 155.098 172.801 155.011C172.841 154.951 172.899 154.901 172.969 154.865C173.038 154.829 173.118 154.808 173.2 154.804C173.248 154.814 173.291 154.838 173.319 154.872C173.347 154.907 173.358 154.949 173.35 154.99C173.339 155.053 173.311 155.114 173.268 155.168C173.203 155.256 173.127 155.339 173.041 155.414C172.967 155.485 172.872 155.54 172.767 155.574C172.767 155.574 172.861 155.503 172.994 155.374C173.071 155.301 173.139 155.221 173.196 155.136C173.26 155.05 173.307 154.897 173.196 154.879C173.084 154.861 172.955 154.972 172.883 155.05C172.814 155.127 172.768 155.216 172.745 155.31C172.728 155.4 172.722 155.491 172.728 155.581Z" fill="#263238"/>
<path d="M180.836 155.139C180.836 155.139 180.622 155.139 180.283 155.157C179.842 155.2 179.425 155.346 179.078 155.578C178.732 155.809 178.47 156.117 178.324 156.465C178.212 156.733 178.203 156.915 178.186 156.911C178.169 156.908 178.186 156.865 178.186 156.786C178.197 156.672 178.223 156.558 178.264 156.448C178.4 156.083 178.662 155.759 179.018 155.517C179.379 155.279 179.816 155.136 180.274 155.107C180.417 155.092 180.561 155.092 180.703 155.107C180.749 155.113 180.794 155.123 180.836 155.139Z" fill="#263238"/>
<path d="M177.23 156.345C176.871 156.414 176.502 156.444 176.133 156.434C175.766 156.449 175.398 156.423 175.039 156.355C175.039 156.334 175.528 156.355 176.133 156.355C176.737 156.355 177.226 156.323 177.23 156.345Z" fill="#263238"/>
<path d="M178.698 156.334C178.698 156.334 178.659 156.419 178.608 156.512C178.556 156.605 178.53 156.69 178.504 156.687C178.479 156.683 178.466 156.591 178.526 156.48C178.586 156.37 178.681 156.316 178.698 156.334Z" fill="#263238"/>
<path d="M179.25 155.759C179.25 155.759 179.22 155.837 179.143 155.901C179.066 155.965 178.988 156.008 178.967 155.994C178.945 155.98 178.997 155.916 179.074 155.848C179.152 155.78 179.229 155.741 179.25 155.759Z" fill="#263238"/>
<path d="M180.04 155.495C180.04 155.516 179.937 155.516 179.825 155.548C179.713 155.58 179.636 155.63 179.614 155.616C179.593 155.602 179.657 155.516 179.795 155.477C179.932 155.438 180.048 155.473 180.04 155.495Z" fill="#263238"/>
<path d="M180.601 155.367C180.601 155.389 180.571 155.421 180.506 155.439C180.442 155.456 180.386 155.46 180.377 155.439C180.369 155.417 180.412 155.385 180.472 155.367C180.532 155.35 180.592 155.35 180.601 155.367Z" fill="#263238"/>
<path d="M190.99 154.911L190.707 154.387L197.443 151.573L198.63 153.712L198.202 153.894C196.362 154.69 188.794 157.835 187.362 157.992C185.78 158.181 190.99 154.911 190.99 154.911Z" fill="#455A64"/>
<path d="M198.656 153.559L198.545 153.616L198.215 153.759L196.997 154.273C195.968 154.697 194.536 155.271 192.936 155.878C191.337 156.484 189.871 157.001 188.807 157.368L187.542 157.793L187.199 157.903C187.16 157.919 187.118 157.929 187.075 157.936L187.191 157.889L187.53 157.764L188.782 157.319C189.841 156.94 191.298 156.413 192.898 155.806C194.497 155.2 195.934 154.636 196.971 154.223L198.197 153.734L198.536 153.602L198.656 153.559Z" fill="#263238"/>
<path d="M189.545 157.186C189.396 157.035 189.228 156.899 189.043 156.779C188.842 156.68 188.627 156.601 188.404 156.544C188.65 156.541 188.892 156.601 189.095 156.716C189.299 156.831 189.456 156.995 189.545 157.186Z" fill="#263238"/>
<path d="M191.092 155.573C191.092 155.573 190.929 155.531 190.758 155.438C190.586 155.345 190.462 155.256 190.475 155.238C190.487 155.221 190.637 155.281 190.809 155.374C190.98 155.467 191.105 155.556 191.092 155.573Z" fill="#263238"/>
<path d="M191.513 155.139C191.513 155.157 191.367 155.139 191.2 155.097C191.033 155.054 190.909 155 190.913 154.979C191.021 154.97 191.131 154.985 191.23 155.022C191.393 155.054 191.522 155.104 191.513 155.139Z" fill="#263238"/>
<path d="M191.573 154.454C191.573 154.475 191.431 154.55 191.234 154.629C191.12 154.685 190.993 154.721 190.861 154.732C190.861 154.71 191.002 154.636 191.195 154.557C191.311 154.501 191.439 154.465 191.573 154.454Z" fill="#263238"/>
<path d="M191.487 154.033C191.487 154.033 191.363 154.175 191.14 154.279C191.014 154.35 190.864 154.387 190.711 154.385C190.834 154.317 190.965 154.258 191.101 154.211C191.311 154.115 191.466 154.015 191.487 154.033Z" fill="#263238"/>
<path d="M190.608 155.167C190.478 155.241 190.333 155.297 190.18 155.331C190.011 155.371 189.839 155.401 189.665 155.42C189.56 155.431 189.453 155.431 189.348 155.42C189.282 155.415 189.22 155.39 189.176 155.348C189.156 155.323 189.146 155.293 189.146 155.263C189.146 155.232 189.156 155.203 189.176 155.177C189.307 155.046 189.488 154.956 189.689 154.924C189.89 154.891 190.098 154.918 190.278 154.999C190.385 155.045 190.478 155.11 190.553 155.188C190.604 155.245 190.626 155.281 190.621 155.284C190.516 155.186 190.389 155.105 190.248 155.045C190.097 154.986 189.929 154.965 189.764 154.985C189.665 154.993 189.57 155.018 189.483 155.057C189.397 155.096 189.32 155.149 189.258 155.213C189.211 155.281 189.258 155.338 189.374 155.348C189.472 155.355 189.571 155.355 189.669 155.348C189.84 155.334 190.009 155.309 190.175 155.273C190.42 155.216 190.608 155.156 190.608 155.167Z" fill="#263238"/>
<path d="M190.488 155.226C190.392 155.17 190.325 155.086 190.299 154.991C190.261 154.891 190.253 154.785 190.273 154.681C190.281 154.613 190.309 154.547 190.356 154.49C190.402 154.433 190.465 154.387 190.539 154.357C190.646 154.328 190.895 154.51 190.912 154.578C190.929 154.645 190.788 154.61 190.779 154.667C190.766 154.768 190.737 154.867 190.694 154.963C190.662 155.054 190.603 155.138 190.522 155.205C190.522 155.205 190.574 155.109 190.634 154.948C190.664 154.854 190.686 154.757 190.698 154.66C190.698 154.56 190.698 154.407 190.561 154.432C190.424 154.457 190.385 154.596 190.355 154.695C190.329 154.788 190.329 154.884 190.355 154.977C190.39 155.063 190.435 155.147 190.488 155.226Z" fill="#263238"/>
<path d="M197.67 152.058C197.67 152.058 197.464 152.118 197.173 152.264C196.792 152.454 196.481 152.728 196.277 153.056C196.078 153.387 195.994 153.758 196.032 154.126C196.058 154.412 196.139 154.576 196.122 154.583C196.095 154.547 196.073 154.509 196.058 154.469C196.016 154.359 195.985 154.247 195.968 154.133C195.907 153.754 195.986 153.367 196.195 153.026C196.404 152.684 196.733 152.404 197.139 152.222C197.26 152.166 197.388 152.12 197.52 152.086C197.568 152.071 197.619 152.061 197.67 152.058Z" fill="#263238"/>
<path d="M194.972 154.39C194.368 154.74 193.692 154.996 192.979 155.146C192.979 155.124 193.429 154.982 193.978 154.789C194.526 154.597 194.96 154.372 194.972 154.39Z" fill="#263238"/>
<path d="M196.306 153.879C196.327 153.879 196.306 153.968 196.306 154.071C196.306 154.175 196.306 154.26 196.306 154.267C196.306 154.274 196.22 154.189 196.22 154.071C196.22 153.954 196.284 153.868 196.306 153.879Z" fill="#263238"/>
<path d="M196.525 153.166C196.547 153.166 196.525 153.248 196.499 153.334C196.474 153.419 196.409 153.483 196.388 153.476C196.366 153.469 196.388 153.394 196.413 153.309C196.439 153.223 196.499 153.159 196.525 153.166Z" fill="#263238"/>
<path d="M197.118 152.642C197.118 152.664 197.032 152.696 196.946 152.763C196.86 152.831 196.813 152.902 196.791 152.895C196.77 152.888 196.791 152.788 196.886 152.706C196.98 152.624 197.113 152.642 197.118 152.642Z" fill="#263238"/>
<path d="M197.57 152.349C197.57 152.349 197.57 152.407 197.518 152.447C197.465 152.487 197.417 152.508 197.4 152.494C197.382 152.479 197.4 152.436 197.452 152.396C197.505 152.356 197.552 152.335 197.57 152.349Z" fill="#263238"/>
<path d="M189.133 79.7586L187.881 67.0265L194.312 67.1228C194.312 67.1228 194.608 65.2433 193.661 61.1277C193.078 58.6026 191.058 57.0548 188.79 56.1347V56.099L188.593 56.0562C186.725 55.359 184.731 54.9262 182.693 54.7759L174.782 54.8508C174.782 54.8508 168.74 54.2088 165.409 57.8073C164.123 59.1875 160.131 68.6349 160.131 68.6349L169.628 72.4367L168.74 67.1977C168.74 67.1977 168.921 70.9959 169.504 72.1907C169.825 72.8611 170.79 74.9439 170.79 74.9439L170.666 81.2279L189.133 79.7586Z" fill="#3366FF"/>
<path d="M184.772 65.1792L183.598 69.3378H194.673L193.944 62.3616L184.772 65.1792Z" fill="#3366FF"/>
<path d="M194.673 69.3377C194.189 69.2636 193.698 69.2231 193.206 69.2166C192.297 69.1738 191.063 69.1346 189.656 69.1417C188.25 69.1488 187.011 69.1987 186.102 69.2558C185.61 69.27 185.121 69.3201 184.64 69.4055C185.13 69.438 185.624 69.438 186.115 69.4055C187.019 69.3805 188.258 69.352 189.656 69.3484C191.054 69.3449 192.293 69.3484 193.202 69.3663C193.692 69.3891 194.184 69.3796 194.673 69.3377Z" fill="#263238"/>
<path d="M184.292 62.3308C184.239 62.6857 184.228 63.044 184.258 63.4007C184.258 64.0534 184.292 64.9521 184.34 65.9471C184.387 66.9422 184.443 67.8445 184.494 68.4936C184.496 68.8531 184.542 69.2116 184.632 69.5635C184.685 69.2086 184.696 68.8503 184.666 68.4936C184.666 67.8409 184.632 66.9386 184.584 65.9436C184.537 64.9485 184.481 64.0498 184.43 63.3972C184.428 63.0387 184.382 62.6814 184.292 62.3308Z" fill="#263238"/>
<g opacity="0.3">
<path opacity="0.3" d="M174.217 65.9326C174.217 65.9326 176.678 81.1148 183.598 80.7118C183.598 80.7118 186.715 80.6833 187.714 78.9607V78.2831L174.217 65.9326Z" fill="black"/>
</g>
<g opacity="0.3">
<path opacity="0.3" d="M184.292 63.2251L182.967 70.6682L183.825 71.9735L185.24 69.4199L184.639 69.4057L184.292 63.2251Z" fill="black"/>
</g>
<path d="M170.752 74.9505C170.669 74.8394 170.606 74.7194 170.563 74.5939C170.456 74.362 170.314 74.0232 170.134 73.5988C169.705 72.493 169.351 71.3678 169.075 70.2286C168.8 69.0887 168.625 67.9337 168.552 66.7727C168.526 66.3269 168.518 65.9667 168.526 65.7028C168.515 65.5739 168.525 65.4443 168.556 65.3176C168.591 65.3176 168.616 65.8669 168.706 66.7442C168.827 67.8947 169.023 69.0388 169.294 70.1715C169.611 71.4982 169.993 72.6858 170.284 73.5382C170.421 73.9341 170.537 74.2729 170.632 74.5511C170.69 74.6798 170.731 74.8139 170.752 74.9505Z" fill="#263238"/>
<path d="M173.548 79.3124C173.488 79.3124 173.316 79.0021 173.166 78.5991C173.037 78.3521 172.98 78.0833 172.999 77.8145C173.188 78.0324 173.318 78.2818 173.38 78.5456C173.504 78.7878 173.561 79.0497 173.548 79.3124Z" fill="#263238"/>
<path d="M174.504 79.2573C174.179 78.5418 174.165 77.7547 174.465 77.0317C174.499 77.4021 174.499 77.7741 174.465 78.1445C174.512 78.5141 174.525 78.8861 174.504 79.2573Z" fill="#263238"/>
<path d="M169.821 72.6127C169.791 72.6555 167.583 71.7852 164.886 70.6653C162.189 69.5454 160.024 68.5967 160.05 68.5503C160.075 68.504 162.288 69.3778 164.985 70.4977C167.682 71.6176 169.847 72.5663 169.821 72.6127Z" fill="#263238"/>
<path d="M173.715 56.0823C173.762 54.2777 173.775 52.3803 173.775 52.3803C173.775 52.3803 170.992 51.9345 170.508 48.8888C170.045 45.9858 171.34 39.1704 171.34 39.1704C175.404 37.8936 179.628 39.0527 182.41 41.7917L181.72 56.4389C181.639 58.1401 179.816 59.4383 177.63 59.3527C175.417 59.2635 173.668 57.8013 173.715 56.0823Z" fill="#B78876"/>
<path d="M171.125 44.6154C171.121 44.7154 171.163 44.8127 171.243 44.8876C171.323 44.9624 171.434 45.0092 171.554 45.0182C171.614 45.0231 171.676 45.0176 171.734 45.0021C171.792 44.9866 171.846 44.9614 171.892 44.9281C171.938 44.8947 171.976 44.8539 172.002 44.8081C172.029 44.7623 172.044 44.7125 172.047 44.6618C172.05 44.5622 172.008 44.4653 171.928 44.391C171.848 44.3167 171.737 44.2708 171.618 44.2626C171.557 44.2549 171.494 44.2582 171.435 44.2724C171.376 44.2866 171.321 44.3113 171.274 44.3448C171.227 44.3784 171.189 44.4199 171.164 44.4666C171.138 44.5133 171.125 44.5641 171.125 44.6154Z" fill="#263238"/>
<path d="M170.953 44.1043C171.009 44.1542 171.382 43.9439 171.875 43.9582C172.368 43.9724 172.732 44.1863 172.792 44.1364C172.852 44.0865 172.767 44.0223 172.608 43.919C172.393 43.7897 172.136 43.7187 171.87 43.7158C171.609 43.7075 171.352 43.7701 171.137 43.894C170.979 43.9903 170.923 44.0794 170.953 44.1043Z" fill="#263238"/>
<path d="M176.231 44.8786C176.226 44.9788 176.268 45.0766 176.348 45.1516C176.428 45.2267 176.54 45.2732 176.66 45.2814C176.721 45.2891 176.784 45.2857 176.844 45.2713C176.903 45.2569 176.959 45.2318 177.005 45.1979C177.052 45.164 177.09 45.1221 177.115 45.0749C177.141 45.0278 177.154 44.9766 177.153 44.925C177.158 44.8252 177.116 44.7278 177.036 44.6533C176.956 44.5788 176.844 44.5331 176.724 44.5258C176.663 44.5181 176.601 44.5214 176.541 44.5356C176.482 44.5498 176.427 44.5745 176.38 44.608C176.333 44.6415 176.296 44.6831 176.27 44.7298C176.244 44.7765 176.231 44.8273 176.231 44.8786Z" fill="#263238"/>
<path d="M176.197 44.3692C176.253 44.4227 176.626 44.2124 177.119 44.2231C177.612 44.2337 177.976 44.4512 178.041 44.4013C178.105 44.3514 178.011 44.2872 177.852 44.1874C177.641 44.0547 177.384 43.9822 177.119 43.9807C176.857 43.9742 176.599 44.0365 176.381 44.1589C176.227 44.2551 176.171 44.3442 176.197 44.3692Z" fill="#263238"/>
<path d="M174.277 47.4339C174.013 47.3586 173.74 47.3118 173.462 47.2948C173.333 47.2948 173.213 47.2555 173.196 47.1842C173.186 47.0727 173.219 46.9614 173.29 46.8668L173.693 46.0643C174.069 45.3823 174.377 44.6762 174.615 43.9529C174.176 44.6082 173.801 45.2916 173.492 45.9965C173.359 46.2783 173.226 46.5494 173.102 46.8062C173.019 46.9336 172.991 47.0811 173.025 47.2234C173.041 47.2621 173.069 47.297 173.104 47.3255C173.14 47.3539 173.183 47.3752 173.23 47.3875C173.302 47.4046 173.375 47.4142 173.449 47.416C173.723 47.4511 174.001 47.4571 174.277 47.4339Z" fill="#263238"/>
<path d="M173.774 52.3792C175.49 52.4364 177.19 52.0969 178.688 51.3984C178.688 51.3984 177.44 53.4564 173.8 53.0961L173.774 52.3792Z" fill="#A36957"/>
<path d="M177.809 43.1529C177.706 43.2848 177.32 43.2277 176.891 43.1529C176.462 43.078 176.085 43.0175 176.033 42.8642C175.982 42.7109 176.432 42.5078 177.007 42.604C177.581 42.7002 177.911 43.0388 177.809 43.1529Z" fill="#263238"/>
<path d="M172.806 42.5482C172.767 42.7015 172.356 42.7585 171.884 42.7763C171.412 42.7941 170.996 42.7763 170.941 42.6195C170.885 42.4627 171.284 42.2417 171.854 42.2203C172.424 42.1989 172.844 42.4021 172.806 42.5482Z" fill="#263238"/>
<path d="M174.285 48.4361C174.23 48.4255 174.174 48.4302 174.123 48.4496C174.073 48.469 174.031 48.5019 174.006 48.543C173.982 48.5794 173.969 48.6204 173.969 48.662C173.97 48.7037 173.984 48.7444 174.009 48.7803C174.034 48.8162 174.071 48.846 174.114 48.8667C174.157 48.8874 174.207 48.8983 174.257 48.8983C174.307 48.8983 174.356 48.8874 174.4 48.8667C174.443 48.846 174.479 48.8162 174.504 48.7803C174.53 48.7444 174.543 48.7037 174.544 48.662C174.545 48.6204 174.532 48.5794 174.508 48.543C174.477 48.4952 174.427 48.4574 174.367 48.4361C174.307 48.4147 174.24 48.4109 174.177 48.4254" fill="#A36957"/>
<path d="M174.401 48.478C174.401 48.4602 174.319 48.3568 174.1 48.396C174.035 48.4102 173.975 48.4384 173.927 48.4778C173.879 48.5172 173.844 48.5664 173.826 48.6206C173.803 48.6888 173.805 48.7612 173.832 48.8285C173.858 48.8958 173.909 48.9549 173.976 48.9984C174.047 49.039 174.132 49.0607 174.218 49.0607C174.305 49.0607 174.389 49.039 174.461 48.9984C174.518 48.9664 174.562 48.9216 174.59 48.8692C174.617 48.8168 174.626 48.7589 174.615 48.7025C174.572 48.5136 174.405 48.4851 174.396 48.5101C174.388 48.535 174.456 48.5992 174.443 48.7097C174.441 48.737 174.43 48.7633 174.412 48.7863C174.394 48.8092 174.369 48.8282 174.34 48.8415C174.307 48.8575 174.27 48.8659 174.231 48.8659C174.193 48.8659 174.155 48.8575 174.122 48.8415C174.092 48.8204 174.069 48.7933 174.056 48.7627C174.042 48.7321 174.038 48.6991 174.045 48.6669C174.05 48.6387 174.063 48.612 174.083 48.589C174.103 48.566 174.13 48.5475 174.16 48.535C174.28 48.4744 174.388 48.5029 174.401 48.478Z" fill="#263238"/>
<path d="M180.746 45.368C180.317 46.2026 179.253 46.8481 179.399 47.7504C179.494 48.3317 179.944 48.8738 179.858 49.4587C179.747 50.172 178.833 50.6998 178.7 51.4309C178.542 52.3261 179.592 53.0216 180.008 53.8561C180.621 55.0758 179.841 56.4453 179.819 57.7791C179.845 58.7918 180.31 59.7625 181.13 60.5114C181.95 61.2603 183.069 61.7366 184.279 61.852C185.256 61.9197 186.358 61.6737 186.851 60.9746C187.28 60.3969 187.186 59.6622 187.434 59.0238C187.812 58.068 188.905 57.369 189.15 56.3847C189.578 54.6015 186.963 53.1036 187.134 51.2776C187.207 50.4965 187.786 49.8189 188.03 49.0628C188.186 48.566 188.198 48.0455 188.065 47.544C187.933 47.0425 187.659 46.5743 187.267 46.1776C186.62 45.5392 185.685 45.1077 185.123 44.4229C184.502 43.6348 184.48 42.6397 184.266 41.7089C183.978 40.5775 183.35 39.5253 182.44 38.6506C181.531 37.7759 180.37 37.1073 179.065 36.7072C177.76 36.3072 176.355 36.1888 174.981 36.363C173.606 36.5373 172.307 36.9986 171.205 37.7038C171.205 37.7038 170.584 40.0541 173.487 40.45C176.389 40.8458 177.731 40.3893 178.057 41.3558C177.98 41.754 178.018 42.1616 178.167 42.5453C178.316 42.929 178.572 43.2779 178.915 43.5634C180.098 44.6262 181.226 44.398 180.746 45.368Z" fill="#263238"/>
<path d="M185.355 61.6712C185.266 61.6737 185.177 61.6665 185.09 61.6498C184.838 61.6127 184.591 61.5566 184.352 61.4821C183.467 61.1998 182.69 60.7228 182.105 60.1019C181.695 59.6736 181.374 59.1915 181.153 58.6754C180.903 58.0876 180.771 57.4694 180.763 56.8458C180.754 56.1585 180.858 55.4734 181.072 54.8094C181.189 54.4587 181.332 54.1145 181.501 53.7787C181.678 53.4445 181.834 53.1028 181.968 52.7551C182.086 52.4125 182.086 52.0492 181.968 51.7066C181.843 51.3693 181.68 51.0422 181.484 50.7294C181.285 50.4192 181.117 50.096 180.982 49.7629C180.85 49.4333 180.819 49.0815 180.892 48.7394C181.063 48.0689 181.552 47.5696 181.844 47.0596C182.121 46.5875 182.254 46.0655 182.23 45.5403C182.191 44.7717 181.855 44.034 181.273 43.4361C181.048 43.2267 180.806 43.0301 180.549 42.8477C180.849 42.9882 181.118 43.1717 181.342 43.3898C181.967 43.9867 182.335 44.7395 182.388 45.5296C182.424 46.0777 182.294 46.6244 182.011 47.1202C181.715 47.648 181.239 48.1509 181.093 48.7643C180.948 49.3778 181.295 50.0233 181.676 50.6438C181.885 50.9656 182.054 51.3037 182.182 51.6531C182.309 52.0263 182.309 52.4212 182.182 52.7944C182.04 53.1542 181.875 53.5077 181.689 53.8536C181.521 54.1821 181.378 54.5192 181.261 54.8629C181.048 55.5101 180.942 56.1784 180.948 56.8494C180.934 57.9921 181.378 59.106 182.208 60.0164C182.764 60.6294 183.503 61.1103 184.352 61.4108C184.991 61.6177 185.36 61.6498 185.355 61.6712Z" fill="#455A64"/>
<path d="M184.927 43.6731C184.718 43.7181 184.503 43.7444 184.288 43.7516C183.699 43.8039 183.105 43.7907 182.521 43.7123C182.078 43.6578 181.653 43.5304 181.27 43.3374C180.887 43.1445 180.555 42.89 180.292 42.5889C180.046 42.2078 179.851 41.8061 179.708 41.3905C179.525 40.9754 179.181 40.6228 178.731 40.3883C177.792 39.8925 176.69 39.8319 175.729 39.7356C174.843 39.6989 173.983 39.4755 173.23 39.0865C172.725 38.8083 172.36 38.3857 172.205 37.8988C172.167 37.7669 172.157 37.6306 172.175 37.4958C172.175 37.4031 172.201 37.3567 172.209 37.3567C172.214 37.5333 172.242 37.7091 172.291 37.881C172.468 38.3362 172.832 38.7251 173.32 38.9795C174.06 39.3385 174.895 39.5395 175.751 39.5644C176.711 39.6571 177.852 39.7035 178.855 40.2314C179.346 40.4878 179.72 40.8731 179.918 41.3263C180.053 41.7314 180.238 42.1235 180.472 42.4961C180.971 43.066 181.719 43.4502 182.555 43.5661C183.121 43.6535 183.696 43.6858 184.27 43.6624C184.489 43.6522 184.708 43.6558 184.927 43.6731Z" fill="#455A64"/>
<path d="M183.864 40.7717C183.702 40.8167 183.532 40.8372 183.362 40.8324C182.563 40.8369 181.793 40.5808 181.218 40.1191C180.956 39.9003 180.732 39.6517 180.553 39.3808C180.168 38.8386 179.795 38.1717 178.993 37.8935C178.22 37.6779 177.397 37.618 176.592 37.7187C175.912 37.7982 175.222 37.7982 174.542 37.7187C174.069 37.6642 173.624 37.5011 173.256 37.248C173.161 37.179 173.077 37.0998 173.007 37.0126C172.956 36.9507 172.934 36.9186 172.943 36.9163C172.943 36.9163 173.063 37.0304 173.311 37.1909C173.678 37.4078 174.104 37.5451 174.551 37.5903C175.218 37.653 175.893 37.6434 176.557 37.5618C177.398 37.4476 178.26 37.5088 179.066 37.7401C179.48 37.8949 179.834 38.1418 180.09 38.4535C180.316 38.7315 180.524 39.0196 180.712 39.3166C180.881 39.5758 181.09 39.8156 181.334 40.0299C181.549 40.2111 181.796 40.3639 182.067 40.4828C182.466 40.6561 182.904 40.757 183.353 40.7789C183.684 40.7753 183.859 40.7539 183.864 40.7717Z" fill="#455A64"/>
<path d="M186.634 60.9C186.612 60.9 186.749 60.6646 186.908 60.2223C187.123 59.6015 187.218 58.9564 187.191 58.3108C187.16 57.3551 186.846 56.4205 186.278 55.5896C185.965 55.1224 185.489 54.7051 185.099 54.1916C184.892 53.9299 184.747 53.6384 184.67 53.332C184.602 53.0096 184.635 52.6782 184.764 52.3691C185.004 51.7521 185.433 51.235 185.527 50.6679C185.622 50.1009 185.296 49.598 184.97 49.1237C184.802 48.8929 184.649 48.6548 184.511 48.4104C184.386 48.1734 184.303 47.9222 184.267 47.665C184.226 47.2118 184.244 46.7564 184.318 46.3062C184.455 45.6699 184.384 45.0146 184.112 44.4089C183.991 44.1967 183.819 44.0074 183.606 43.8525C183.606 43.8525 183.628 43.8525 183.658 43.8739C183.709 43.8949 183.755 43.9226 183.795 43.956C183.963 44.0722 184.099 44.2169 184.194 44.3804C184.504 44.9912 184.601 45.6625 184.473 46.3169C184.413 46.7587 184.406 47.2042 184.451 47.6472C184.557 48.1455 184.794 48.6181 185.146 49.031C185.329 49.272 185.485 49.5262 185.613 49.7906C185.748 50.076 185.793 50.3855 185.742 50.6893C185.639 51.3135 185.197 51.8413 184.974 52.4226C184.857 52.7031 184.826 53.0034 184.884 53.2964C184.959 53.5797 185.096 53.8493 185.287 54.0917C185.652 54.5874 186.145 55.0118 186.458 55.5004C187.032 56.3594 187.339 57.3243 187.35 58.3072C187.363 58.9651 187.241 59.62 186.989 60.2437C186.921 60.4125 186.838 60.577 186.741 60.7359C186.715 60.7946 186.679 60.8498 186.634 60.9Z" fill="#455A64"/>
<path d="M169.17 127.352C169.17 127.352 166.28 104.584 166.112 96.1713C165.945 87.7581 170.662 79.4555 170.662 79.4555L189.133 78.8171C189.133 78.8171 192.786 87.3516 192.851 90.9429C192.979 97.9117 190.625 104.791 190.895 110.319L191.513 127.367" fill="#263238"/>
<path d="M192.135 99.3611C192.039 99.4307 191.937 99.495 191.831 99.5537L191.663 99.65L191.483 99.7962C191.324 99.9104 191.181 100.038 191.054 100.178C190.458 100.784 190.025 101.872 189.609 103.223C189.397 103.973 189.083 104.701 188.675 105.392C188.55 105.581 188.407 105.761 188.246 105.93C188.169 106.016 188.096 106.109 188.006 106.191L187.723 106.426C187.317 106.741 186.847 106.993 186.334 107.168C185.3 107.546 184.13 107.724 183.066 108.17C181.977 108.658 181.135 109.455 180.695 110.417C180.172 111.383 179.838 112.396 179.409 113.345C178.98 114.294 178.401 115.199 177.48 115.777C176.598 116.287 175.551 116.562 174.478 116.565C173.483 116.615 172.562 116.59 171.734 116.694C170.989 116.758 170.277 116.982 169.667 117.343C169.222 117.633 168.888 118.024 168.707 118.47C168.592 118.751 168.567 119.052 168.634 119.344C168.685 119.543 168.75 119.64 168.737 119.643C168.668 119.554 168.619 119.455 168.591 119.351C168.501 119.053 168.513 118.741 168.625 118.448C168.796 117.981 169.132 117.567 169.59 117.261C170.216 116.868 170.956 116.622 171.734 116.548C172.592 116.433 173.505 116.448 174.487 116.394C175.529 116.389 176.544 116.12 177.398 115.624C178.265 114.994 178.904 114.177 179.246 113.263C179.675 112.325 179.988 111.309 180.532 110.324C180.994 109.323 181.874 108.494 183.011 107.988C184.117 107.532 185.287 107.357 186.295 106.993C186.788 106.823 187.241 106.582 187.633 106.28L187.903 106.055C187.989 105.977 188.062 105.888 188.139 105.806C188.29 105.643 188.423 105.47 188.538 105.288C188.948 104.607 189.266 103.889 189.485 103.149C189.914 101.801 190.381 100.698 191.012 100.089C191.137 99.9497 191.281 99.8229 191.44 99.7106C191.509 99.6607 191.569 99.6107 191.629 99.5715L191.805 99.4788C191.912 99.434 192.022 99.3947 192.135 99.3611Z" fill="white"/>
<path d="M192.246 88.8257C192.265 88.9259 192.274 89.0273 192.271 89.1288C192.27 89.4233 192.227 89.7166 192.143 90.0026C191.773 91.0459 191.048 91.9775 190.055 92.6845C189.399 93.186 188.68 93.6272 187.911 94.0005C187.083 94.4071 186.17 94.7959 185.231 95.2381C184.245 95.6779 183.326 96.2156 182.495 96.8394C181.643 97.5427 180.941 98.3616 180.42 99.261C179.894 100.173 179.294 101.053 178.624 101.897C178.283 102.29 177.888 102.649 177.449 102.966C177.015 103.273 176.539 103.536 176.029 103.748C175.108 104.124 174.148 104.431 173.161 104.664C172.243 104.899 171.386 105.11 170.64 105.377C169.963 105.601 169.318 105.889 168.719 106.233C168.268 106.494 167.863 106.804 167.514 107.157C167.222 107.463 166.979 107.798 166.789 108.156C166.82 108.057 166.86 107.96 166.909 107.867C167.05 107.597 167.23 107.343 167.445 107.111C167.788 106.743 168.192 106.419 168.646 106.148C169.248 105.791 169.897 105.492 170.58 105.256C171.406 104.976 172.249 104.732 173.105 104.525C174.078 104.286 175.025 103.978 175.935 103.605C176.418 103.395 176.871 103.142 177.286 102.849C177.709 102.535 178.089 102.184 178.418 101.8C179.079 100.961 179.673 100.087 180.197 99.1825C180.735 98.2631 181.46 97.4281 182.341 96.7146C183.186 96.0815 184.122 95.5377 185.128 95.0954C186.071 94.6568 186.985 94.2752 187.812 93.8721C188.579 93.5113 189.298 93.0832 189.956 92.5954C190.941 91.9095 191.673 91.0056 192.066 89.9883C192.176 89.6073 192.236 89.2175 192.246 88.8257Z" fill="white"/>
<path d="M166.207 97.3638C166.19 97.3417 166.177 97.3177 166.168 97.2925C166.136 97.2237 166.109 97.1535 166.087 97.0821C166.013 96.7984 166.028 96.5037 166.13 96.2261C166.37 95.5128 167.317 94.5963 168.844 94.1433C169.607 93.9258 170.469 93.7867 171.369 93.6012C172.117 93.4982 172.824 93.2479 173.432 92.8714C174.04 92.4948 174.531 92.0028 174.864 91.4364C175.108 91.0208 175.321 90.5932 175.503 90.1561C175.838 89.2068 176.293 88.2898 176.862 87.4207C177.513 86.5663 178.502 85.9271 179.657 85.6125C180.709 85.3287 181.782 85.1023 182.869 84.9349C183.839 84.7799 184.778 84.5135 185.66 84.1431C186.407 83.7882 187.051 83.3012 187.547 82.7166C188.279 81.8724 188.696 80.8678 188.747 79.8278C188.749 79.4461 188.719 79.0647 188.657 78.6865C188.787 79.057 188.846 79.4421 188.833 79.8278C188.817 80.8903 188.413 81.9237 187.675 82.7915C187.173 83.3954 186.516 83.8986 185.75 84.2644C184.857 84.6485 183.903 84.9259 182.916 85.0882C181.839 85.2583 180.776 85.4858 179.735 85.7694C178.625 86.0718 177.676 86.6858 177.051 87.5063C176.491 88.3636 176.041 89.2672 175.708 90.2025C175.523 90.6475 175.304 91.0823 175.052 91.5042C174.798 91.9095 174.475 92.282 174.092 92.6098C173.339 93.181 172.412 93.5695 171.412 93.7332C170.503 93.9258 169.646 94.047 168.895 94.2539C167.407 94.6747 166.464 95.5414 166.211 96.2333C166.107 96.5001 166.079 96.7833 166.13 97.0607C166.166 97.1597 166.192 97.2611 166.207 97.3638Z" fill="white"/>
<path d="M190.66 116.621C190.677 116.695 190.687 116.771 190.69 116.846C190.698 117.062 190.671 117.278 190.608 117.488C190.339 118.261 189.769 118.939 188.987 119.414C188.466 119.76 187.889 120.043 187.272 120.256C186.616 120.487 185.892 120.673 185.129 120.869C184.336 121.061 183.561 121.3 182.809 121.582C182.027 121.893 181.327 122.328 180.746 122.863C180.12 123.405 179.58 124 178.98 124.528C178.406 125.039 177.739 125.473 177.003 125.812C175.752 126.38 174.351 126.684 172.926 126.696C171.971 126.705 171.021 126.573 170.122 126.308C169.877 126.238 169.639 126.153 169.41 126.054C169.326 126.026 169.247 125.989 169.174 125.944C169.26 125.964 169.345 125.989 169.427 126.019C169.662 126.103 169.903 126.176 170.147 126.24C171.046 126.474 171.984 126.584 172.926 126.564C174.32 126.534 175.685 126.225 176.905 125.662C177.617 125.326 178.264 124.902 178.821 124.403C179.409 123.883 179.945 123.291 180.584 122.734C181.198 122.179 181.938 121.731 182.762 121.415C183.525 121.131 184.312 120.893 185.116 120.701C185.87 120.509 186.591 120.345 187.26 120.109C187.858 119.906 188.42 119.636 188.932 119.307C189.7 118.855 190.273 118.21 190.565 117.467C190.629 117.188 190.66 116.905 190.66 116.621Z" fill="white"/>
<path d="M188.554 69.3514L184.978 69.4227C184.84 70.0225 184.567 70.595 184.172 71.1096C181.17 66.7943 178.868 61.0167 178.293 58.695C178.379 58.4632 178.478 58.2064 178.602 57.9211C178.691 57.4877 178.675 57.0439 178.555 56.6158C178.452 56.0986 178.281 55.4032 178.229 55.0822C178.07 54.0979 177.877 53.9445 177.466 54.0551C176.908 54.2084 177.697 56.8119 177.239 56.869C176.99 56.8975 176.69 56.0059 176.604 55.2748C176.518 54.5437 176.115 52.2897 175.828 52.1399C175.399 51.9188 175.026 52.2683 175.138 52.9959C175.249 53.7234 175.382 55.9346 174.919 55.9667C174.456 55.9988 174.061 52.2612 174.061 52.2612C174.061 52.2612 174.134 51.448 173.594 51.4659C172.625 51.5015 173.384 55.4388 173.465 55.8133C173.525 56.0701 173.037 56.12 172.977 55.8383C172.917 55.5565 172.694 52.1043 171.69 52.1328C170.927 52.1328 172.278 55.3746 171.849 56.1236C171.42 56.8725 171.129 53.5843 170.404 53.6271C170.134 53.6449 169.932 53.6877 170.43 55.5458C170.906 57.0222 171.479 58.4758 172.145 59.9004C173.294 65.0539 178.336 81.5414 186.239 78.5242C190.663 76.8337 192.456 69.3514 192.456 69.3514H188.554Z" fill="#B78876"/>
<path d="M173.312 56.0634C173.345 56.0705 173.381 56.0705 173.414 56.0634C173.466 56.0502 173.511 56.0222 173.54 55.9843C173.569 55.9463 173.581 55.901 173.573 55.8565C173.573 55.6354 173.522 55.3144 173.462 54.8971C173.361 54.3942 173.295 53.887 173.264 53.3779C173.264 53.0783 173.264 52.7573 173.286 52.4185C173.292 52.2462 173.314 52.0746 173.35 51.9049C173.384 51.7444 173.513 51.5483 173.663 51.5804H173.689C173.839 51.5804 173.959 51.6731 174.006 51.8229C174.059 51.9781 174.079 52.1398 174.066 52.3008C174.155 53.2996 174.308 54.2937 174.525 55.2788C174.559 55.4107 174.594 55.5462 174.645 55.6818C174.668 55.7511 174.696 55.819 174.731 55.885C174.753 55.9218 174.777 55.9575 174.804 55.992C174.823 56.0181 174.849 56.0401 174.88 56.0562C174.912 56.0723 174.947 56.0821 174.984 56.0848C175.046 56.079 175.105 56.058 175.153 56.0244C175.201 55.9907 175.236 55.946 175.254 55.8957C175.291 55.826 175.318 55.753 175.335 55.6782C175.369 55.5344 175.392 55.3891 175.404 55.2431C175.443 54.6488 175.433 54.053 175.374 53.4599C175.32 53.1637 175.305 52.8635 175.331 52.5647C175.347 52.4357 175.422 52.3167 175.541 52.233C175.569 52.2194 175.599 52.2108 175.631 52.2078C175.663 52.2047 175.695 52.2072 175.726 52.2152C175.762 52.2225 175.797 52.2345 175.828 52.2509C175.85 52.2644 175.867 52.283 175.876 52.3044C176.011 52.5936 176.11 52.8935 176.171 53.1995C176.249 53.5134 176.313 53.8379 176.373 54.1625C176.433 54.487 176.489 54.8151 176.536 55.1468C176.573 55.4891 176.639 55.8287 176.733 56.1632C176.784 56.3343 176.848 56.5023 176.926 56.6661C176.97 56.7578 177.031 56.8432 177.106 56.9193C177.135 56.9509 177.174 56.9751 177.219 56.9889C177.264 57.0028 177.312 57.0059 177.359 56.9978C177.403 56.9858 177.442 56.9648 177.472 56.9367C177.503 56.9086 177.525 56.8743 177.535 56.8373C177.586 56.655 177.602 56.4673 177.582 56.2809C177.582 56.1026 177.556 55.9243 177.535 55.7531C177.505 55.4535 177.471 55.1575 177.458 54.865C177.447 54.7213 177.447 54.5772 177.458 54.4335C177.466 54.3699 177.485 54.3075 177.514 54.2481C177.522 54.2284 177.535 54.2103 177.552 54.1946H177.608C177.891 54.0983 177.985 54.4264 178.062 54.6903C178.139 54.9542 178.17 55.2538 178.238 55.5355C178.35 56.0955 178.495 56.6554 178.568 57.1903C178.618 57.4465 178.606 57.7083 178.534 57.9607C178.431 58.2175 178.328 58.4707 178.23 58.7239V58.7489V58.7703C178.732 60.5224 179.372 62.2451 180.146 63.9273C180.824 65.4501 181.505 66.7804 182.101 67.8503C182.697 68.9203 183.238 69.7584 183.606 70.3219L184.035 70.9602C184.082 71.0363 184.138 71.1081 184.202 71.1742C184.166 71.095 184.122 71.0186 184.069 70.946L183.641 70.2933C183.289 69.7191 182.783 68.8668 182.2 67.7968C181.617 66.7269 180.957 65.3966 180.296 63.8738C179.541 62.1941 178.913 60.4765 178.418 58.731V58.781C178.517 58.5313 178.615 58.2781 178.718 58.0249C178.808 57.747 178.825 57.4565 178.77 57.1725C178.693 56.6126 178.551 56.0705 178.44 55.507C178.375 55.2288 178.332 54.9435 178.264 54.6511C178.259 54.5008 178.229 54.3519 178.174 54.2088C178.125 54.1218 178.042 54.0513 177.938 54.0091C177.828 53.9792 177.709 53.9792 177.599 54.0091H177.531C177.494 54.0188 177.461 54.0346 177.432 54.0555C177.384 54.0891 177.348 54.132 177.325 54.1803C177.286 54.2575 177.261 54.3393 177.252 54.4228C177.239 54.5772 177.239 54.7321 177.252 54.8864C177.252 55.186 177.303 55.4856 177.333 55.7852C177.333 55.9599 177.368 56.1418 177.376 56.3023C177.393 56.4632 177.383 56.6252 177.346 56.7838C177.346 56.8194 177.312 56.8123 177.346 56.8301L177.321 56.8087C177.266 56.7505 177.223 56.6855 177.192 56.6162C177.117 56.4619 177.055 56.3034 177.008 56.1418C176.913 55.817 176.849 55.4868 176.815 55.1539C176.769 54.8187 176.713 54.487 176.647 54.1589C176.587 53.8308 176.519 53.5098 176.442 53.1888C176.377 52.8621 176.268 52.5426 176.116 52.2366C176.086 52.1855 176.04 52.1422 175.983 52.1118C175.933 52.0877 175.88 52.0685 175.824 52.0547C175.763 52.0414 175.699 52.0383 175.637 52.0456C175.574 52.053 175.514 52.0706 175.46 52.0975C175.371 52.1525 175.297 52.222 175.243 52.3018C175.188 52.3816 175.154 52.4699 175.142 52.5612C175.115 52.7232 175.115 52.8877 175.142 53.0497C175.142 53.2031 175.185 53.3529 175.198 53.5027C175.258 54.0862 175.271 54.6724 175.237 55.2574C175.227 55.3963 175.205 55.5345 175.172 55.6711C175.16 55.7348 175.138 55.7971 175.108 55.8565C175.097 55.88 175.081 55.9017 175.061 55.9207C175.061 55.9528 175.031 55.9207 175.035 55.9635C175.035 55.9278 175.035 55.9635 175.035 55.9171C175.016 55.8931 174.999 55.868 174.984 55.8422C174.954 55.7852 174.928 55.721 174.902 55.6604C174.855 55.532 174.821 55.4 174.786 55.2716C174.563 54.295 174.401 53.3093 174.302 52.3186C174.315 52.1393 174.29 51.9595 174.229 51.7872C174.201 51.6974 174.143 51.6158 174.062 51.5519C174.02 51.5181 173.97 51.4919 173.916 51.4747C173.861 51.4575 173.803 51.4498 173.745 51.452H173.77C173.698 51.4432 173.624 51.4523 173.557 51.4783C173.491 51.5043 173.435 51.546 173.397 51.5982C173.334 51.6833 173.29 51.7777 173.269 51.8764C173.233 52.0532 173.213 52.232 173.209 52.4114C173.209 52.768 173.209 53.0783 173.209 53.3814C173.249 53.8938 173.328 54.4036 173.444 54.9078C173.517 55.3216 173.573 55.6425 173.599 55.8601C173.607 55.8982 173.599 55.9375 173.576 55.9713C173.554 56.0051 173.518 56.0313 173.474 56.0455C173.346 56.0562 173.307 56.0598 173.312 56.0634Z" fill="#A36957"/>
<path d="M145.386 74.263C144.549 74.2481 143.714 74.3285 142.903 74.5019C140.686 74.9869 136.866 76.9128 136.707 79.2916H139.486C139.486 79.2916 137.929 82.0449 138.384 81.7881C139.572 81.1247 141.93 79.1311 141.93 79.1311L145.386 74.263Z" fill="#B78876"/>
<path d="M183.258 32.8101C183.194 32.8101 182.945 30.9056 182.697 28.5304C182.448 26.1552 182.294 24.2507 182.354 24.2507C182.414 24.2507 182.667 26.1552 182.915 28.5304C183.164 30.9056 183.319 32.8101 183.258 32.8101Z" fill="#263238"/>
<path d="M195.44 24.3972C195.487 24.4258 193.613 26.6904 191.251 29.4544C188.888 32.2184 186.929 34.4474 186.877 34.4046C186.826 34.3618 188.704 32.1114 191.066 29.3474C193.429 26.5835 195.389 24.3687 195.44 24.3972Z" fill="#263238"/>
<path d="M200.5 34.6624C200.5 34.7123 198.322 35.1296 195.612 35.5933C192.902 36.0569 190.689 36.3922 190.677 36.3423C190.664 36.2923 192.85 35.875 195.565 35.4114C198.279 34.9477 200.47 34.6125 200.5 34.6624Z" fill="#263238"/>
<path d="M54.6874 83.6472L39.5089 148.484L37.5365 156.973L138.727 156.566C143.272 156.548 147.302 153.192 148.756 148.206L166.704 86.996C167.815 83.2121 165.379 79.2748 161.932 79.2783L59.4896 79.3675C57.26 79.3639 55.2619 81.1186 54.6874 83.6472Z" fill="#3366FF"/>
<g opacity="0.5">
<path opacity="0.5" d="M54.6874 83.6472L39.5089 148.484L37.5365 156.973L138.727 156.566C143.272 156.548 147.302 153.192 148.756 148.206L166.704 86.996C167.815 83.2121 165.379 79.2748 161.932 79.2783L59.4896 79.3675C57.26 79.3639 55.2619 81.1186 54.6874 83.6472Z" fill="black"/>
</g>
<path d="M129.032 144.083L118.313 72.2523C117.884 69.31 115.058 67.1131 111.727 67.1238L88.23 67.1844C87.3568 67.1926 86.4948 67.3486 85.6964 67.6429C84.8981 67.9373 84.1802 68.3637 83.5864 68.8963L72.4384 78.7646L7.09357 79.057C3.10171 79.0749 0.0316978 82.2204 0.559087 85.7512L10.5109 152.14C10.9397 155.079 13.7653 157.272 17.0882 157.268L130.991 157.079C143.674 157.297 144.888 154.183 144.888 154.183C130.327 156.862 129.032 144.101 129.032 144.083Z" fill="#3366FF"/>
<path d="M145.295 37.0121C145.156 36.9634 145.037 36.8829 144.951 36.78C144.865 36.677 144.817 36.5559 144.811 36.4307L144.639 33.1211C144.633 33.0183 144.656 32.9157 144.706 32.8214C144.756 32.7272 144.831 32.6439 144.926 32.5782C145.022 32.5124 145.134 32.466 145.255 32.4426C145.375 32.4193 145.501 32.4196 145.621 32.4435C145.953 32.5031 146.296 32.5056 146.629 32.4511C146.963 32.3965 147.279 32.2859 147.559 32.1261C147.817 31.9903 148.039 31.812 148.21 31.6023C148.382 31.3925 148.501 31.1557 148.558 30.9064C148.597 30.654 148.574 30.3976 148.492 30.1526C148.409 29.9075 148.269 29.6787 148.078 29.4798C147.877 29.2535 147.624 29.0623 147.334 28.9172C147.044 28.7722 146.723 28.6761 146.388 28.6346C145.714 28.6034 145.046 28.7624 144.494 29.0861C143.941 29.4097 143.536 29.8789 143.344 30.4178C143.28 30.581 143.143 30.7175 142.961 30.7986C142.779 30.8798 142.566 30.8995 142.367 30.8535C142.168 30.8075 141.998 30.6995 141.893 30.5519C141.787 30.4043 141.754 30.2285 141.801 30.0611C142.092 29.2135 142.726 28.4754 143.595 27.9707C144.464 27.466 145.516 27.2257 146.573 27.29C147.123 27.351 147.653 27.5033 148.131 27.738C148.609 27.9726 149.025 28.2848 149.356 28.656C149.677 29 149.912 29.394 150.046 29.8149C150.181 30.2357 150.213 30.6748 150.14 31.1061C150.043 31.5368 149.84 31.9463 149.545 32.3094C149.25 32.6725 148.869 32.9815 148.425 33.2174C147.782 33.5776 147.031 33.7814 146.256 33.8059L146.388 36.3594C146.393 36.4716 146.364 36.583 146.304 36.6833C146.243 36.7837 146.153 36.8696 146.042 36.9333C145.931 36.997 145.802 37.0363 145.668 37.0475C145.533 37.0588 145.398 37.0417 145.274 36.9978L145.295 37.0121Z" fill="#3366FF"/>
<path d="M146.47 38.3663C146.48 38.4739 146.45 38.5813 146.385 38.675C146.321 38.7686 146.225 38.8443 146.108 38.8924C145.992 38.9405 145.861 38.9588 145.733 38.9451C145.604 38.9314 145.483 38.8863 145.385 38.8154C145.287 38.7445 145.217 38.6511 145.183 38.547C145.149 38.4428 145.153 38.3327 145.194 38.2304C145.236 38.1281 145.313 38.0384 145.415 37.9724C145.518 37.9065 145.642 37.8675 145.772 37.8601C145.858 37.8548 145.944 37.8637 146.026 37.8863C146.108 37.909 146.183 37.9448 146.248 37.9919C146.313 38.039 146.366 38.0963 146.404 38.1606C146.443 38.2248 146.465 38.2947 146.47 38.3663Z" fill="#3366FF"/>
<path d="M131.519 32.3443C131.537 32.2738 131.55 32.2023 131.557 32.1303C131.557 31.9734 131.604 31.7737 131.639 31.492C131.681 31.146 131.751 30.8029 131.849 30.4648C131.904 30.2651 131.934 30.044 132.02 29.8193C132.106 29.5946 132.192 29.3521 132.286 29.106C132.782 27.8868 133.506 26.7399 134.43 25.7073C135.641 24.3701 137.176 23.2595 138.936 22.4476C139.938 21.9777 141.005 21.6113 142.113 21.3562C143.31 21.0925 144.542 20.9582 145.779 20.9568C146.431 20.9481 147.083 20.9767 147.73 21.0424C148.061 21.0709 148.386 21.1422 148.717 21.1886C149.05 21.2362 149.38 21.3029 149.703 21.3883C151.054 21.7025 152.34 22.1872 153.515 22.8256C156.127 24.2348 158.116 26.3129 159.183 28.7458C159.757 30.0491 160.048 31.4271 160.04 32.8151C160.058 34.245 159.754 35.6651 159.144 37.0021L158.951 37.4086L158.926 37.4621L158.951 37.5156C160.028 39.5734 161.095 41.5956 162.103 43.5536L162.283 43.3824L155.851 41.3317L155.774 41.3067L155.71 41.3566C154.008 42.7278 151.926 43.7276 149.647 44.2668C147.7 44.7127 145.661 44.81 143.666 44.5524C141.67 44.2948 139.763 43.6882 138.07 42.7725C136.684 42.0162 135.461 41.0695 134.456 39.9729C132.998 38.3722 132.054 36.4896 131.711 34.502C131.66 34.1454 131.617 33.8458 131.579 33.5747C131.54 33.3037 131.579 33.0826 131.557 32.8936C131.536 32.7045 131.557 32.5797 131.557 32.4763C131.578 32.4736 131.598 32.4643 131.611 32.4502C131.625 32.4361 131.631 32.4183 131.63 32.4004C131.628 32.3825 131.618 32.3657 131.603 32.3535C131.587 32.3412 131.566 32.3344 131.544 32.3344C131.523 32.3344 131.502 32.3412 131.486 32.3535C131.47 32.3657 131.46 32.3825 131.459 32.4004C131.457 32.4183 131.464 32.4361 131.477 32.4502C131.491 32.4643 131.51 32.4736 131.531 32.4763C131.531 32.5797 131.531 32.7188 131.531 32.8936C131.531 33.0683 131.531 33.3108 131.531 33.5819C131.531 33.8529 131.604 34.1632 131.647 34.5163C131.788 35.3741 132.034 36.2177 132.38 37.0342C132.871 38.1123 133.532 39.1317 134.344 40.0656C135.354 41.1818 136.585 42.1466 137.984 42.9187C139.698 43.8573 141.632 44.482 143.659 44.7513C145.685 45.0206 147.757 44.9284 149.737 44.4808C152.043 43.936 154.152 42.9267 155.877 41.5421L155.736 41.5671L162.167 43.6284L162.489 43.7319L162.347 43.4573C161.327 41.4993 160.272 39.4807 159.2 37.4193V37.5228L159.397 37.1055C160.023 35.7394 160.334 34.2876 160.315 32.8258C160.328 31.4083 160.038 30.0001 159.457 28.6674C158.368 26.1859 156.334 24.0683 153.665 22.6366C152.46 21.9833 151.141 21.49 149.754 21.1743C149.426 21.088 149.091 21.0224 148.751 20.9782C148.416 20.9283 148.086 20.8569 147.752 20.832C147.096 20.7643 146.436 20.7333 145.775 20.7392C144.518 20.7437 143.267 20.8852 142.053 21.1601C140.93 21.4254 139.849 21.8013 138.833 22.2799C137.056 23.1118 135.511 24.2485 134.301 25.6145C133.38 26.6643 132.666 27.8297 132.187 29.0668C132.097 29.3236 132.012 29.5697 131.934 29.7801C131.866 29.9951 131.812 30.2129 131.771 30.4327C131.68 30.7731 131.619 31.1189 131.591 31.467C131.566 31.7416 131.549 31.952 131.536 32.109C131.518 32.1865 131.512 32.2656 131.519 32.3443Z" fill="#263238"/>
<path opacity="0.5" d="M79.9155 129.716L76.0737 133.147L46.4884 111.007L50.3302 107.576L79.9155 129.716Z" fill="white"/>
<path opacity="0.5" d="M74.4664 106.818L78.7112 109.996L51.943 133.909L47.6938 130.731L74.4664 106.818Z" fill="white"/>
</svg>
