<svg width="92" height="29" viewBox="0 0 92 29" fill="none" xmlns="http://www.w3.org/2000/svg">
<path d="M3.55 17.6C5.81 17.6 6.69 16.58 6.69 15.43C6.69 14.57 6.25 13.73 4.61 13.49L2.51 13.18C2.15 13.13 2.03 13.03 2.03 12.82C2.03 12.53 2.24 12.4 3.2 12.4C4.46 12.4 4.67 12.56 4.67 13.04V13.19H6.55V13.13C6.55 11.63 5.53 10.7 3.4 10.7C0.98 10.7 0.15 11.82 0.15 12.89C0.15 13.97 0.78 14.64 2.03 14.81L4.13 15.09C4.68 15.16 4.81 15.26 4.81 15.5C4.81 15.8 4.69 15.89 3.55 15.89C2.29 15.89 2.13 15.77 2.13 15.32V15.11H0.25V15.17C0.25 16.87 1.5 17.6 3.55 17.6ZM14.0159 17.5V15.81H15.8459C17.4359 15.81 18.4359 14.89 18.4359 13.3C18.4359 11.71 17.4359 10.8 15.8459 10.8H12.1359V17.5H14.0159ZM15.6359 12.49C16.2959 12.49 16.5659 12.62 16.5659 13.3C16.5659 13.99 16.2959 14.12 15.6359 14.12H14.0159V12.49H15.6359ZM27.4452 17.6C29.8352 17.6 31.1952 16.24 31.1952 14.15C31.1952 12.06 29.8352 10.7 27.4452 10.7C25.1152 10.7 23.7352 12.06 23.7352 14.15C23.7352 16.24 25.1152 17.6 27.4452 17.6ZM27.4452 15.8C26.0852 15.8 25.7352 15.48 25.7352 14.15C25.7352 12.82 26.0852 12.5 27.4452 12.5C28.8052 12.5 29.1952 12.82 29.1952 14.15C29.1952 15.48 28.8052 15.8 27.4452 15.8ZM40.7965 17.5V12.49H43.1565V10.8H36.5465V12.49H38.9165V17.5H40.7965ZM52.7105 17.5V12.49H55.0705V10.8H48.4605V12.49H50.8305V17.5H52.7105ZM62.2346 17.5L62.7546 16.26H65.9346L66.4446 17.5H68.6046L65.7046 10.8H63.0146L60.1246 17.5H62.2346ZM63.8546 13.63L64.2846 12.5H64.4146L64.8546 13.63L65.2446 14.57H63.4646L63.8546 13.63Z" fill="#FBFAFC"/>
<rect x="73" y="8" width="19" height="13" rx="2" fill="#5378F6"/>
<path d="M78.33 17V14.739L78.288 13.878H78.358L78.953 14.76L80.682 17H81.802V12.31H80.752V14.571L80.801 15.516H80.724L80.08 14.529L78.4 12.31H77.28V17H78.33ZM84.5711 17.07C85.5861 17.07 86.0761 16.608 86.2371 15.992H86.2931V17H87.2661V14.522H84.6271V15.299H86.2161C86.1881 15.894 85.8591 16.062 84.7811 16.062C83.7521 16.062 83.3671 15.698 83.3671 14.655C83.3671 13.612 83.7661 13.248 84.8301 13.248C85.7331 13.248 86.0901 13.507 86.0901 14.053V14.109H87.2591V14.053C87.2591 12.926 86.3281 12.24 84.8581 12.24C83.2481 12.24 82.2541 13.192 82.2541 14.655C82.2541 16.118 83.1361 17.07 84.5711 17.07Z" fill="#FBFAFC"/>
</svg>
