<svg width="23" height="24" viewBox="0 0 23 24" fill="none" xmlns="http://www.w3.org/2000/svg">
<path fill-rule="evenodd" clip-rule="evenodd" d="M22.3648 19.8716L18.5954 16.088C19.5836 14.5492 20.1624 12.728 20.1624 10.7798C20.1624 5.31628 15.7436 0.897461 10.2801 0.897461C4.81653 0.897461 0.397705 5.31628 0.397705 10.7798C0.397705 16.2433 4.81653 20.6622 10.2801 20.6622C12.2424 20.6622 14.0636 20.0692 15.5883 19.0951L19.3718 22.8645C19.753 23.2457 20.2895 23.4857 20.8683 23.4857C22.0401 23.4857 22.9859 22.5398 22.9859 21.368C22.9859 20.7892 22.7459 20.2528 22.3648 19.8716ZM10.2801 17.8386C6.38359 17.8386 3.22123 14.6763 3.22123 10.7798C3.22123 6.88334 6.38359 3.72099 10.2801 3.72099C14.1765 3.72099 17.3389 6.88334 17.3389 10.7798C17.3389 14.6763 14.1765 17.8386 10.2801 17.8386Z" fill="white"/>
</svg>
